<svg width="366.402" height="89.002" viewBox="0 0 366.402 89.002" xmlns="http://www.w3.org/2000/svg"><g id="svgGroup" stroke-linecap="round" fill-rule="evenodd" font-size="9pt" stroke="#ebe6e6" stroke-width="0.25mm" fill="#ffffff" style="stroke:#ebe6e6;stroke-width:0.25mm;fill:#ffffff"><path d="M 17.4 69.002 L 0 1.302 L 0.9 0.002 L 4.5 0.002 L 20.9 64.602 L 22.4 64.602 L 39.4 8.202 L 44.3 8.202 L 61.2 64.602 L 62.8 64.602 L 79.1 0.002 L 82.7 0.002 L 83.6 1.302 L 66.3 69.002 L 57.8 69.002 L 41.8 14.302 L 25.8 69.002 L 17.4 69.002 Z M 139.9 69.002 L 96.2 69.002 L 96.2 0.002 L 139.9 0.002 L 139.9 4.402 L 101 4.402 L 101 30.202 L 136.9 30.202 L 136.9 34.602 L 101 34.602 L 101 64.602 L 139.9 64.602 L 139.9 69.002 Z M 220.1 69.002 L 216.9 66.502 L 216.9 64.602 L 245.6 64.602 Q 252.784 64.602 254.297 58.993 A 13.045 13.045 0 0 0 254.7 55.602 L 254.7 43.602 A 12.822 12.822 0 0 0 254.249 40.041 Q 253.092 36.047 248.97 34.986 A 13.549 13.549 0 0 0 245.6 34.602 L 224.3 34.602 L 224.3 30.202 L 245.6 30.202 Q 252.821 30.202 254.312 24.472 A 13.407 13.407 0 0 0 254.7 21.102 L 254.7 13.402 A 12.822 12.822 0 0 0 254.249 9.841 Q 253.092 5.847 248.97 4.786 A 13.549 13.549 0 0 0 245.6 4.402 L 217.9 4.402 L 217.9 2.502 L 221.1 0.002 L 245.1 0.002 A 20.73 20.73 0 0 1 250.799 0.716 Q 259.5 3.208 259.5 14.402 L 259.5 22.202 A 10.425 10.425 0 0 1 259.087 25.205 A 8.199 8.199 0 0 1 257 28.702 L 253.5 32.202 L 257 35.702 Q 259.5 38.202 259.5 42.202 L 259.5 54.602 A 20.73 20.73 0 0 1 258.786 60.301 Q 256.294 69.002 245.1 69.002 L 220.1 69.002 Z M 270.2 69.002 L 269.7 68.002 L 288.8 42.602 L 270.5 18.502 L 271 17.502 L 275.2 17.502 L 291.5 39.502 L 307.8 17.502 L 312 17.502 L 312.5 18.502 L 294.3 42.602 L 313.3 68.002 L 312.9 69.002 L 308.6 69.002 L 291.5 45.702 L 274.4 69.002 L 270.2 69.002 Z M 187.5 69.002 L 154.4 69.002 L 154.4 0.002 L 185.5 0.002 A 20.73 20.73 0 0 1 191.199 0.716 Q 199.9 3.208 199.9 14.402 L 199.9 21.802 A 9.613 9.613 0 0 1 199.408 24.929 A 8.373 8.373 0 0 1 197.9 27.602 L 194.4 31.802 L 198.6 35.302 A 8.672 8.672 0 0 1 201.561 40.174 A 13.581 13.581 0 0 1 201.9 43.302 L 201.9 54.602 A 20.73 20.73 0 0 1 201.186 60.301 Q 198.694 69.002 187.5 69.002 Z M 329.4 89.002 L 324.9 89.002 L 324.9 17.502 L 352.2 17.502 A 20.307 20.307 0 0 1 357.819 18.211 Q 364.121 20.029 365.795 26.506 A 21.209 21.209 0 0 1 366.4 31.802 L 366.4 54.702 A 20.723 20.723 0 0 1 365.696 60.361 Q 363.891 66.707 357.459 68.392 A 20.782 20.782 0 0 1 352.2 69.002 L 329.4 69.002 L 329.4 89.002 Z M 329.4 21.502 L 329.4 65.002 L 352.6 65.002 Q 359.98 65.002 361.503 59.146 A 13.702 13.702 0 0 0 361.9 55.702 L 361.9 30.802 Q 361.9 23.422 356.044 21.899 A 13.702 13.702 0 0 0 352.6 21.502 L 329.4 21.502 Z M 159.2 34.602 L 159.2 64.602 L 188.1 64.602 Q 195.242 64.602 196.716 58.935 A 13.26 13.26 0 0 0 197.1 55.602 L 197.1 43.602 Q 197.1 36.46 191.433 34.986 A 13.26 13.26 0 0 0 188.1 34.602 L 159.2 34.602 Z M 159.2 4.402 L 159.2 30.202 L 186.1 30.202 A 12.822 12.822 0 0 0 189.662 29.751 Q 193.655 28.594 194.716 24.472 A 13.549 13.549 0 0 0 195.1 21.102 L 195.1 13.402 Q 195.1 6.26 189.433 4.786 A 13.26 13.26 0 0 0 186.1 4.402 L 159.2 4.402 Z" vector-effect="non-scaling-stroke"/></g></svg>