<svg width="195" height="204" viewBox="0 0 195 204" fill="none" xmlns="http://www.w3.org/2000/svg">
<path d="M187.289 57.8648L174.648 65.2746C174.087 65.5933 173.301 65.5458 172.451 65.0486L124.732 37.2761C123.028 36.2841 121.639 33.8639 121.639 31.8753L121.684 20.642C121.684 19.6499 122.02 18.9472 122.58 18.6308L135.222 11.2188C134.661 11.5577 134.327 12.2356 134.327 13.2322L134.28 24.4632C134.28 26.4744 135.67 28.8698 137.373 29.8867L185.07 57.6344C185.944 58.1564 186.729 58.2015 187.289 57.8648Z" fill="#75A2D8"/>
<path opacity="0.15" d="M187.289 57.8648L174.648 65.2746C174.087 65.5933 173.301 65.5458 172.451 65.0486L124.732 37.2761C123.028 36.2841 121.639 33.8639 121.639 31.8753L121.684 20.642C121.684 19.6499 122.02 18.9472 122.58 18.6308L135.222 11.2188C134.661 11.5577 134.327 12.2356 134.327 13.2322L134.28 24.4632C134.28 26.4744 135.67 28.8698 137.373 29.8867L185.07 57.6344C185.944 58.1564 186.729 58.2015 187.289 57.8648Z" fill="black"/>
<path d="M176.99 51.1286L176.965 62.38C176.943 64.3686 175.553 65.1595 173.85 64.1652L164.906 58.9677L143.299 46.3808L126.13 36.3927C124.427 35.4006 123.037 32.9804 123.037 30.9918L123.082 19.7585C123.082 17.7699 124.472 16.9587 126.2 17.9507L136.824 24.1199L158.409 36.7045L173.897 45.721C175.6 46.7221 176.99 49.1377 176.99 51.1286Z" fill="#ADCEFF"/>
<path opacity="0.33" d="M164.907 58.9706L143.3 46.3837L136.822 24.125L158.407 36.7096L164.907 58.9706Z" fill="#E6F0FF"/>
<path d="M189.91 34.6322L132.755 1.34581C131.432 0.577494 130.222 0.509702 129.37 1.00685L116.751 8.41888H116.727C115.875 8.91603 115.339 9.97813 115.339 11.4922L115.07 103.625C115.07 106.676 117.197 110.38 119.822 111.918L176.978 145.182C178.479 146.041 179.779 146.018 180.654 145.295C180.564 145.363 180.497 145.453 180.385 145.523C184.598 143.06 188.812 140.595 193.026 138.111C193.88 137.614 194.416 136.552 194.416 135.038L194.685 42.93C194.685 39.8771 192.555 36.1688 189.91 34.6322ZM175.566 63.2634C175.543 65.252 174.153 66.0429 172.45 65.0486L124.731 37.2761C123.027 36.2841 121.638 33.8639 121.638 31.8753L121.682 20.642C121.682 18.6534 123.072 17.8421 124.8 18.8342L172.497 46.6067C174.201 47.601 175.59 50.0189 175.59 52.0098L175.566 63.2634Z" fill="#0B4299"/>
<path d="M171.791 136.409C171.016 136.409 170.245 136.208 169.55 135.804L121.259 107.697C119.869 106.888 119.013 105.389 119.018 103.769L119.17 49.7133C119.174 48.1021 120.031 46.6129 121.418 45.8084C122.111 45.4062 122.88 45.2051 123.653 45.2051C124.428 45.2051 125.199 45.4062 125.894 45.8107L174.185 73.9199C175.575 74.7289 176.431 76.2272 176.426 77.8474L176.274 131.903C176.27 133.514 175.413 135.004 174.026 135.808C173.333 136.21 172.564 136.409 171.791 136.409Z" fill="#0D58C6"/>
<path d="M162.192 108.515L162.129 129.732L172.798 135.942L174.313 135.054L174.374 113.837L163.709 107.627L162.192 108.515Z" fill="#ADCEFF"/>
<path d="M162.258 83.7784L162.197 104.98L172.864 111.189L174.379 110.304L174.442 89.1024L163.773 82.8926L162.258 83.7784Z" fill="#ADCEFF"/>
<path d="M163.807 70.5195L162.294 71.4076L162.268 80.2501L172.937 86.4599L174.452 85.5718L174.474 76.7271L163.807 70.5195Z" fill="#ADCEFF"/>
<path d="M148.423 112.896L148.4 121.738L159.067 127.948L160.582 127.062L160.609 118.22L149.94 112.01L148.423 112.896Z" fill="#ADCEFF"/>
<path d="M148.458 100.523L148.434 109.366L159.103 115.573L160.618 114.685L160.642 105.843L149.976 99.6328L148.458 100.523Z" fill="#ADCEFF"/>
<path d="M148.493 88.1635L148.471 96.9924L159.137 103.202L160.653 102.314L160.677 93.4852L150.011 87.2754L148.493 88.1635Z" fill="#ADCEFF"/>
<path d="M148.529 75.7885L148.504 84.6151L159.171 90.8272L160.688 89.9391L160.715 81.1102L150.046 74.9004L148.529 75.7885Z" fill="#ADCEFF"/>
<path d="M148.564 63.4157L148.539 72.2582L159.208 78.468L160.723 77.5777L160.746 68.7352L150.077 62.5254L148.564 63.4157Z" fill="#ADCEFF"/>
<path d="M120.966 96.9135L120.941 105.758L145.339 119.959L146.854 119.07L146.879 110.226L122.481 96.0254L120.966 96.9135Z" fill="#ADCEFF"/>
<path d="M134.73 92.5284L134.705 101.373L145.372 107.585L146.889 106.695L146.912 97.8524L136.247 91.6426L134.73 92.5284Z" fill="#ADCEFF"/>
<path d="M134.765 80.1736L134.742 89.0002L145.409 95.21L146.922 94.322L146.949 85.493L136.28 79.2832L134.765 80.1736Z" fill="#ADCEFF"/>
<path d="M134.8 67.7982L134.773 76.6226L145.442 82.8325L146.96 81.9466L146.985 73.1223L136.316 66.9102L134.8 67.7982Z" fill="#ADCEFF"/>
<path d="M134.834 55.4232L134.807 64.2657L145.476 70.4755L146.993 69.5875L147.016 60.745L136.346 54.5352L134.834 55.4232Z" fill="#ADCEFF"/>
<path d="M133.161 98.7046L133.185 89.8622L122.519 83.6523L121.003 84.5382L120.977 93.3806L131.646 99.5905L133.161 98.7046Z" fill="#ADCEFF"/>
<path d="M133.194 86.3291L133.216 77.5048L122.55 71.2949L121.034 72.183L121.01 81.0097L131.677 87.2172L133.194 86.3291Z" fill="#ADCEFF"/>
<path d="M133.227 73.9567L133.254 65.1278L122.585 58.918L121.068 59.8061L121.043 68.635L131.712 74.8448L133.227 73.9567Z" fill="#ADCEFF"/>
<path d="M133.264 61.5975L133.289 52.7528L122.62 46.543L121.107 47.4311L121.08 56.2735L131.749 62.4856L133.264 61.5975Z" fill="#ADCEFF"/>
<path d="M182.04 50.3313L181.782 142.437C181.777 143.951 181.249 145.02 180.395 145.517C184.606 143.05 188.82 140.582 193.032 138.116C193.888 137.613 194.414 136.55 194.419 135.036L194.679 42.9238L182.04 50.3313Z" fill="#0D58C6"/>
<path d="M132.759 1.35115C131.432 0.578305 130.233 0.508253 129.366 1.0167L116.727 8.42195C117.594 7.91351 118.793 7.98582 120.12 8.7564L177.276 42.0292L189.915 34.6239L132.759 1.35115Z" fill="#ADCEFF"/>
<path d="M177.275 42.0283L189.915 34.623C192.564 36.1642 194.689 39.8747 194.68 42.9254L182.041 50.3307C182.05 47.2755 179.925 43.5672 177.275 42.0283Z" fill="#6EA8FF"/>
<path opacity="0.2" d="M174.372 113.837L174.312 135.053L172.797 135.944L172.857 114.725L162.188 108.515L163.706 107.627L174.372 113.837ZM163.775 82.8936L162.26 83.7817L172.927 89.9915L172.869 111.193L174.384 110.305L174.444 89.1034L163.775 82.8936ZM163.809 70.5191L162.294 71.4072L172.963 77.617L172.936 86.4595L174.451 85.5714L174.476 76.7267L163.809 70.5191ZM149.941 112.011L148.424 112.899L159.093 119.106L159.068 127.951L160.583 127.063L160.61 118.22L149.941 112.011ZM149.977 99.6339L148.46 100.524L159.129 106.734L159.104 115.574L160.619 114.686L160.646 105.844L149.977 99.6339ZM150.011 87.2753L148.493 88.1633L159.162 94.3732L159.138 103.202L160.653 102.312L160.678 93.4851L150.011 87.2753ZM150.047 74.9008L148.529 75.7911L159.198 82.001L159.171 90.8276L160.689 89.9395L160.716 81.1106L150.047 74.9008ZM150.078 62.5263L148.563 63.4166L159.232 69.6265L159.207 78.4689L160.722 77.5786L160.747 68.7361L150.078 62.5263ZM122.482 96.0251L120.967 96.9132L145.364 111.116L145.34 119.958L146.855 119.068L146.88 110.225L122.482 96.0251ZM136.249 91.6434L134.731 92.5315L145.4 98.7413L145.373 107.586L146.891 106.696L146.915 97.8532L136.249 91.6434ZM136.28 79.2825L134.765 80.1728L145.434 86.3826L145.409 95.2093L146.922 94.3212L146.949 85.4923L136.28 79.2825ZM136.316 66.9102L134.801 67.8006L145.467 74.0104L145.443 82.8348L146.96 81.9467L146.985 73.1223L136.316 66.9102ZM136.349 54.5358L134.834 55.4239L145.503 61.6337L145.476 70.4762L146.994 69.5881L147.019 60.7456L136.349 54.5358ZM122.518 83.6529L121.003 84.5409L131.669 90.7485L131.645 99.5932L133.16 98.7052L133.187 89.8627L122.518 83.6529ZM122.551 71.2942L121.036 72.1823L131.705 78.3921L131.678 87.2165L133.196 86.3284L133.218 77.504L122.551 71.2942ZM122.587 58.9175L121.07 59.8055L131.739 66.0154L131.714 74.8443L133.229 73.9539L133.256 65.1273L122.587 58.9175ZM122.621 46.543L121.106 47.4333L131.773 53.6431L131.748 62.4856L133.263 61.5975L133.29 52.7528L122.621 46.543Z" fill="black" fill-opacity="0.2"/>
<path opacity="0.15" d="M78.9883 201.712L173.176 145.961L194.755 158.713L102.917 215.003L78.9883 201.712Z" fill="url(#paint0_linear_3083_14705)"/>
<path d="M182.204 147.135L182.181 153.982C182.181 155.213 181.374 156.445 179.759 157.384L97.3124 205.459L97.2897 205.48C94.041 207.359 88.7591 207.359 85.4898 205.48C85.467 205.48 85.467 205.48 85.467 205.459L2.46185 157.384C0.805433 156.424 0 155.172 0 153.919L0.0207057 147.093C0.0207057 145.861 0.828208 144.609 2.44322 143.67L84.9121 95.5946C88.1607 93.695 93.4633 93.695 96.7348 95.5946L179.721 143.67C181.376 144.63 182.204 145.882 182.204 147.135Z" fill="#E6F0FF"/>
<path opacity="0.1" d="M85.4856 198.63L2.48259 150.545C0.836525 149.593 0.0165985 148.34 0.0207396 147.09L3.48536e-05 153.924C-0.00617671 155.177 0.81789 156.427 2.45981 157.379L85.4629 205.467C85.4691 205.471 85.4774 205.473 85.4836 205.477V205.467V198.63H85.4856Z" fill="black"/>
<path opacity="0.12" d="M85.4844 198.629V205.465V205.476C88.7703 207.363 94.0439 207.361 97.2863 205.474L97.305 205.463V198.635C94.0563 200.529 88.7662 200.529 85.4844 198.629Z" fill="black"/>
<path opacity="0.2" d="M179.784 150.543L97.3066 198.637V205.465L179.765 157.38C181.376 156.438 182.181 155.209 182.186 153.973L182.206 147.141C182.202 148.37 181.395 149.6 179.784 150.543Z" fill="black"/>
<path opacity="0.15" d="M32.1113 160.113L67.4303 180.623L137.24 140.119L102.281 119.488" fill="url(#paint1_linear_3083_14705)"/>
<path d="M104.193 120.956L34.5009 161.53L32.1094 160.113L31.9707 112.808L89.6637 79.2246L92.0531 80.6253L104.141 97.2752L104.193 120.956Z" fill="#00A47C"/>
<path opacity="0.3" d="M98.1102 96.9122L100.514 97.0583L100.578 118.883L38.0941 155.249L37.9844 116.27L90.0601 85.957L88.7308 89.5162L69.2389 100.864L43.993 115.56C43.9992 117.879 42.3946 120.67 40.4027 121.829L40.4752 146.887C42.4629 145.73 44.0821 146.657 44.0903 148.974L69.3321 134.282L94.5655 119.595C94.5593 117.276 96.1681 114.472 98.1558 113.312L98.1102 96.9122ZM69.3341 134.282C75.966 130.423 81.3287 119.806 81.3018 110.573C81.2748 101.35 75.8687 97.004 69.241 100.864C62.5987 104.732 57.234 115.347 57.2589 124.567C57.2837 133.802 62.6919 138.149 69.3341 134.282Z" fill="black"/>
<path opacity="0.25" d="M34.358 114.207L34.5009 161.53L32.1094 160.113L31.9707 112.808L89.6637 79.2246L92.0531 80.6253L34.358 114.207Z" fill="white"/>
<path opacity="0.4" d="M92.0499 80.6172L104.133 97.2816L86.2441 96.1857L92.0499 80.6172Z" fill="white"/>
<path opacity="0.15" d="M67.3438 174.74L102.915 195.366L172.503 154.787L139.425 135.576" fill="url(#paint2_linear_3083_14705)"/>
<path d="M139.425 135.577L69.7333 176.158L67.3439 174.74L67.2031 127.427L124.898 93.8457L127.288 95.2443L139.375 111.894L139.425 135.577Z" fill="#00A47C"/>
<path opacity="0.3" d="M133.345 111.533L135.749 111.679L135.813 133.504L73.3265 169.877L73.2168 130.891L125.292 100.578L123.963 104.137L104.471 115.485L79.2255 130.181C79.2317 132.5 77.627 135.291 75.6352 136.45L75.7076 161.512C77.6953 160.353 79.3145 161.282 79.3228 163.6L104.564 148.904L129.798 134.216C129.792 131.897 131.401 129.093 133.388 127.933L133.345 111.533ZM104.567 148.902C111.198 145.042 116.561 134.425 116.534 125.192C116.507 115.969 111.101 111.623 104.473 115.483C97.8312 119.351 92.4664 129.966 92.4913 139.186C92.5182 148.421 97.9243 152.77 104.567 148.902Z" fill="black"/>
<path opacity="0.25" d="M69.5925 128.828L69.7333 176.158L67.3439 174.74L67.2031 127.427L124.898 93.8457L127.288 95.2443L69.5925 128.828Z" fill="white"/>
<path opacity="0.4" d="M127.284 95.2383L139.368 111.903L121.477 110.805L127.284 95.2383Z" fill="white"/>
<defs>
<linearGradient id="paint0_linear_3083_14705" x1="143.538" y1="191.615" x2="128.881" y2="166.944" gradientUnits="userSpaceOnUse">
<stop stop-opacity="0"/>
<stop offset="1"/>
</linearGradient>
<linearGradient id="paint1_linear_3083_14705" x1="94.5692" y1="167.439" x2="72.1888" y2="128.883" gradientUnits="userSpaceOnUse">
<stop stop-opacity="0"/>
<stop offset="1"/>
</linearGradient>
<linearGradient id="paint2_linear_3083_14705" x1="129.912" y1="182.256" x2="107.398" y2="143.471" gradientUnits="userSpaceOnUse">
<stop stop-opacity="0"/>
<stop offset="1"/>
</linearGradient>
</defs>
</svg>
