<svg width="256.481" height="62.301" viewBox="0 0 256.481 62.301" xmlns="http://www.w3.org/2000/svg"><g id="svgGroup" stroke-linecap="round" fill-rule="evenodd" font-size="9pt" stroke="#ebe6e6" stroke-width="0.25mm" fill="#ffffff" style="stroke:#ebe6e6;stroke-width:0.25mm;fill:#ffffff"><path d="M 12.18 48.301 L 0 0.911 L 0.63 0.001 L 3.15 0.001 L 14.63 45.221 L 15.68 45.221 L 27.58 5.741 L 31.01 5.741 L 42.84 45.221 L 43.96 45.221 L 55.37 0.001 L 57.89 0.001 L 58.52 0.911 L 46.41 48.301 L 40.46 48.301 L 29.26 10.011 L 18.06 48.301 L 12.18 48.301 Z M 97.93 48.301 L 67.34 48.301 L 67.34 0.001 L 97.93 0.001 L 97.93 3.081 L 70.7 3.081 L 70.7 21.141 L 95.83 21.141 L 95.83 24.221 L 70.7 24.221 L 70.7 45.221 L 97.93 45.221 L 97.93 48.301 Z M 154.07 48.301 L 151.83 46.551 L 151.83 45.221 L 171.92 45.221 Q 176.949 45.221 178.008 41.295 A 9.131 9.131 0 0 0 178.29 38.921 L 178.29 30.521 A 8.975 8.975 0 0 0 177.974 28.028 Q 176.872 24.221 171.92 24.221 L 157.01 24.221 L 157.01 21.141 L 171.92 21.141 A 9.17 9.17 0 0 0 174.441 20.826 Q 177.268 20.016 178.018 17.13 A 9.385 9.385 0 0 0 178.29 14.771 L 178.29 9.381 A 8.975 8.975 0 0 0 177.974 6.888 Q 176.872 3.081 171.92 3.081 L 152.53 3.081 L 152.53 1.751 L 154.77 0.001 L 171.57 0.001 A 14.511 14.511 0 0 1 175.559 0.501 Q 180.032 1.782 181.22 6.349 A 14.851 14.851 0 0 1 181.65 10.081 L 181.65 15.541 A 7.297 7.297 0 0 1 181.361 17.643 A 5.739 5.739 0 0 1 179.9 20.091 L 177.45 22.541 L 179.9 24.991 Q 181.65 26.741 181.65 29.541 L 181.65 38.221 A 14.511 14.511 0 0 1 181.15 42.211 Q 179.869 46.684 175.303 47.872 A 14.851 14.851 0 0 1 171.57 48.301 L 154.07 48.301 Z M 189.14 48.301 L 188.79 47.601 L 202.16 29.821 L 189.35 12.951 L 189.7 12.251 L 192.64 12.251 L 204.05 27.651 L 215.46 12.251 L 218.4 12.251 L 218.75 12.951 L 206.01 29.821 L 219.31 47.601 L 219.03 48.301 L 216.02 48.301 L 204.05 31.991 L 192.08 48.301 L 189.14 48.301 Z M 131.25 48.301 L 108.08 48.301 L 108.08 0.001 L 129.85 0.001 A 14.511 14.511 0 0 1 133.839 0.501 Q 138.312 1.782 139.5 6.349 A 14.851 14.851 0 0 1 139.93 10.081 L 139.93 15.261 A 6.729 6.729 0 0 1 139.585 17.451 A 5.861 5.861 0 0 1 138.53 19.321 L 136.08 22.261 L 139.02 24.711 Q 141.33 26.601 141.33 30.311 L 141.33 38.221 A 14.511 14.511 0 0 1 140.83 42.211 Q 139.549 46.684 134.983 47.872 A 14.851 14.851 0 0 1 131.25 48.301 Z M 230.58 62.301 L 227.43 62.301 L 227.43 12.251 L 246.54 12.251 Q 256.48 12.251 256.48 22.261 L 256.48 38.291 A 14.506 14.506 0 0 1 255.987 42.253 Q 254.267 48.301 246.54 48.301 L 230.58 48.301 L 230.58 62.301 Z M 230.58 15.051 L 230.58 45.501 L 246.82 45.501 A 9.372 9.372 0 0 0 249.396 45.179 Q 252.285 44.351 253.052 41.402 A 9.591 9.591 0 0 0 253.33 38.991 L 253.33 21.561 A 9.372 9.372 0 0 0 253.007 18.985 Q 252.18 16.096 249.231 15.329 A 9.591 9.591 0 0 0 246.82 15.051 L 230.58 15.051 Z M 111.44 24.221 L 111.44 45.221 L 131.67 45.221 A 9.069 9.069 0 0 0 134.163 44.909 Q 137.97 43.819 137.97 38.921 L 137.97 30.521 A 9.069 9.069 0 0 0 137.658 28.028 Q 136.567 24.221 131.67 24.221 L 111.44 24.221 Z M 111.44 3.081 L 111.44 21.141 L 130.27 21.141 A 8.975 8.975 0 0 0 132.763 20.826 Q 136.57 19.723 136.57 14.771 L 136.57 9.381 A 9.069 9.069 0 0 0 136.258 6.888 Q 135.167 3.081 130.27 3.081 L 111.44 3.081 Z" vector-effect="non-scaling-stroke"/></g></svg>