<svg width="146.561" height="35.601" viewBox="0 0 146.561 35.601" xmlns="http://www.w3.org/2000/svg"><g id="svgGroup" stroke-linecap="round" fill-rule="evenodd" font-size="9pt" stroke="#ebe6e6" stroke-width="0.25mm" fill="#ffffff" style="stroke:#ebe6e6;stroke-width:0.25mm;fill:#ffffff"><path d="M 6.96 27.601 L 0 0.521 L 0.36 0.001 L 1.8 0.001 L 8.36 25.841 L 8.96 25.841 L 15.76 3.281 L 17.72 3.281 L 24.48 25.841 L 25.12 25.841 L 31.64 0.001 L 33.08 0.001 L 33.44 0.521 L 26.52 27.601 L 23.12 27.601 L 16.72 5.721 L 10.32 27.601 L 6.96 27.601 Z M 55.96 27.601 L 38.48 27.601 L 38.48 0.001 L 55.96 0.001 L 55.96 1.761 L 40.4 1.761 L 40.4 12.081 L 54.76 12.081 L 54.76 13.841 L 40.4 13.841 L 40.4 25.841 L 55.96 25.841 L 55.96 27.601 Z M 88.04 27.601 L 86.76 26.601 L 86.76 25.841 L 98.24 25.841 Q 101.88 25.841 101.88 22.241 L 101.88 17.441 A 5.129 5.129 0 0 0 101.7 16.016 Q 101.237 14.419 99.588 13.994 A 5.419 5.419 0 0 0 98.24 13.841 L 89.72 13.841 L 89.72 12.081 L 98.24 12.081 A 5.24 5.24 0 0 0 99.68 11.9 Q 101.88 11.27 101.88 8.441 L 101.88 5.361 A 5.129 5.129 0 0 0 101.7 3.936 Q 101.237 2.339 99.588 1.914 A 5.419 5.419 0 0 0 98.24 1.761 L 87.16 1.761 L 87.16 1.001 L 88.44 0.001 L 98.04 0.001 Q 102.611 0.001 103.554 3.628 A 8.486 8.486 0 0 1 103.8 5.761 L 103.8 8.881 A 4.17 4.17 0 0 1 103.635 10.082 A 3.28 3.28 0 0 1 102.8 11.481 L 101.4 12.881 L 102.8 14.281 A 3.367 3.367 0 0 1 103.765 16.302 A 4.628 4.628 0 0 1 103.8 16.881 L 103.8 21.841 Q 103.8 26.412 100.173 27.355 A 8.486 8.486 0 0 1 98.04 27.601 L 88.04 27.601 Z M 108.08 27.601 L 107.88 27.201 L 115.52 17.041 L 108.2 7.401 L 108.4 7.001 L 110.08 7.001 L 116.6 15.801 L 123.12 7.001 L 124.8 7.001 L 125 7.401 L 117.72 17.041 L 125.32 27.201 L 125.16 27.601 L 123.44 27.601 L 116.6 18.281 L 109.76 27.601 L 108.08 27.601 Z M 75 27.601 L 61.76 27.601 L 61.76 0.001 L 74.2 0.001 Q 78.771 0.001 79.714 3.628 A 8.486 8.486 0 0 1 79.96 5.761 L 79.96 8.721 A 3.845 3.845 0 0 1 79.763 9.972 A 3.349 3.349 0 0 1 79.16 11.041 L 77.76 12.721 L 79.44 14.121 A 3.469 3.469 0 0 1 80.625 16.069 A 5.432 5.432 0 0 1 80.76 17.321 L 80.76 21.841 Q 80.76 26.412 77.133 27.355 A 8.486 8.486 0 0 1 75 27.601 Z M 131.76 35.601 L 129.96 35.601 L 129.96 7.001 L 140.88 7.001 Q 146.56 7.001 146.56 12.721 L 146.56 21.881 Q 146.56 27.601 140.88 27.601 L 131.76 27.601 L 131.76 35.601 Z M 131.76 8.601 L 131.76 26.001 L 141.04 26.001 A 5.355 5.355 0 0 0 142.512 25.816 Q 144.76 25.173 144.76 22.281 L 144.76 12.321 A 5.355 5.355 0 0 0 144.576 10.849 Q 143.932 8.601 141.04 8.601 L 131.76 8.601 Z M 63.68 13.841 L 63.68 25.841 L 75.24 25.841 A 5.183 5.183 0 0 0 76.665 25.662 Q 78.262 25.205 78.687 23.574 A 5.304 5.304 0 0 0 78.84 22.241 L 78.84 17.441 A 5.183 5.183 0 0 0 78.662 16.016 Q 78.204 14.419 76.573 13.994 A 5.304 5.304 0 0 0 75.24 13.841 L 63.68 13.841 Z M 63.68 1.761 L 63.68 12.081 L 74.44 12.081 A 5.129 5.129 0 0 0 75.865 11.9 Q 77.462 11.438 77.887 9.789 A 5.419 5.419 0 0 0 78.04 8.441 L 78.04 5.361 A 5.183 5.183 0 0 0 77.862 3.936 Q 77.404 2.339 75.773 1.914 A 5.304 5.304 0 0 0 74.44 1.761 L 63.68 1.761 Z" vector-effect="non-scaling-stroke"/></g></svg>